<?xml version="1.0" encoding="UTF-8"?>
<!DOCTYPE svg PUBLIC "-//W3C//DTD SVG 1.1//EN" "http://www.w3.org/Graphics/SVG/1.1/DTD/svg11.dtd">
<svg xmlns="http://www.w3.org/2000/svg" version="1.1" width="500px" height="500px" style="shape-rendering:geometricPrecision; text-rendering:geometricPrecision; image-rendering:optimizeQuality; fill-rule:evenodd; clip-rule:evenodd" xmlns:xlink="http://www.w3.org/1999/xlink">
<g><path style="opacity:0.255" fill="#a5c6e7" d="M 265.5,80.5 C 270.391,80.5319 275.057,81.1985 279.5,82.5C 277.167,82.5 274.833,82.5 272.5,82.5C 272.167,82.5 271.833,82.5 271.5,82.5C 269.5,81.8333 267.5,81.1667 265.5,80.5 Z"/></g>
<g><path style="opacity:0.6" fill="#a7c3db" d="M 223.5,81.5 C 219.143,83.4188 214.477,84.4188 209.5,84.5C 213.921,82.8985 218.588,81.8985 223.5,81.5 Z"/></g>
<g><path style="opacity:1" fill="#3e659e" d="M 272.5,82.5 C 274.833,82.5 277.167,82.5 279.5,82.5C 284.092,82.8816 288.425,83.8816 292.5,85.5C 286.12,85.6072 279.787,85.1072 273.5,84C 272.944,83.6174 272.611,83.1174 272.5,82.5 Z"/></g>
<g><path style="opacity:1" fill="#3c62a7" d="M 265.5,80.5 C 267.5,81.1667 269.5,81.8333 271.5,82.5C 259.826,82.7723 248.16,83.2723 236.5,84C 234.314,85.309 232.147,85.4757 230,84.5C 229.196,85.8045 228.029,86.4712 226.5,86.5C 222.535,85.4701 218.535,85.3035 214.5,86C 206.982,87.5108 199.649,89.3442 192.5,91.5C 194.636,90.3472 196.636,89.0138 198.5,87.5C 201.986,85.8944 205.653,84.8944 209.5,84.5C 214.477,84.4188 219.143,83.4188 223.5,81.5C 237.587,79.3713 251.587,79.0379 265.5,80.5 Z"/></g>
<g><path style="opacity:0.922" fill="#5d7ca9" d="M 292.5,85.5 C 297.915,86.1938 302.915,87.8605 307.5,90.5C 305.143,90.6633 302.81,90.4966 300.5,90C 297.61,88.5723 294.944,87.0723 292.5,85.5 Z"/></g>
<g><path style="opacity:0.8" fill="#6a89b3" d="M 198.5,87.5 C 196.636,89.0138 194.636,90.3472 192.5,91.5C 190.61,91.2965 189.11,91.9632 188,93.5C 187.329,92.7476 186.496,92.4142 185.5,92.5C 189.522,90.2661 193.856,88.5995 198.5,87.5 Z"/></g>
<g><path style="opacity:1" fill="#56a3fc" d="M 384.5,165.5 C 384.328,166.492 384.662,167.158 385.5,167.5C 408.009,206.313 413.509,247.646 402,291.5C 387.705,339.963 357.539,374.629 311.5,395.5C 255.73,417.048 203.397,410.881 154.5,377C 120.746,350.535 100.246,316.035 93,273.5C 87.0558,231.63 95.7224,193.296 119,158.5C 120.084,155.341 119.25,153.008 116.5,151.5C 119.5,150.5 121.5,148.5 122.5,145.5C 125.241,142.442 128.575,140.109 132.5,138.5C 134.176,137.272 134.509,135.939 133.5,134.5C 134.492,134.672 135.158,134.338 135.5,133.5C 146.51,131.927 157.51,130.26 168.5,128.5C 168.649,127.448 168.483,126.448 168,125.5C 164.998,122.768 163.165,119.768 162.5,116.5C 198.272,93.5679 237.272,86.0679 279.5,94C 324.421,103.445 359.421,127.279 384.5,165.5 Z M 236.5,124.5 C 250.955,123.984 265.288,124.984 279.5,127.5C 283.687,128.969 288.02,130.302 292.5,131.5C 297.828,133.832 303.162,136.165 308.5,138.5C 308.973,139.906 309.973,140.573 311.5,140.5C 312.514,141.674 313.847,142.34 315.5,142.5C 315.973,143.906 316.973,144.573 318.5,144.5C 318.973,145.906 319.973,146.573 321.5,146.5C 321.973,147.906 322.973,148.573 324.5,148.5C 325.585,150.587 327.251,151.92 329.5,152.5C 329.833,153.5 330.5,154.167 331.5,154.5C 333.833,156.5 336.167,158.5 338.5,160.5C 338.856,162.19 339.856,163.19 341.5,163.5C 343.817,167.146 346.484,170.48 349.5,173.5C 353.669,179.166 357.335,185.166 360.5,191.5C 361.596,194.032 362.929,196.365 364.5,198.5C 364.263,199.791 364.596,200.791 365.5,201.5C 367.18,206.257 368.847,210.923 370.5,215.5C 370.294,218.495 370.96,221.162 372.5,223.5C 374.043,235.779 374.71,248.112 374.5,260.5C 373.398,266.779 372.398,273.113 371.5,279.5C 369.926,282.907 368.926,286.573 368.5,290.5C 367.463,291.93 366.796,293.597 366.5,295.5C 364.597,298.979 362.93,302.646 361.5,306.5C 359.25,309.999 357.25,313.665 355.5,317.5C 353.738,318.262 352.738,319.596 352.5,321.5C 351.094,321.973 350.427,322.973 350.5,324.5C 348.413,325.585 347.08,327.251 346.5,329.5C 345.833,329.5 345.5,329.833 345.5,330.5C 342.097,332.9 339.43,335.9 337.5,339.5C 334.911,340.419 332.911,342.086 331.5,344.5C 330.167,345.167 329.167,346.167 328.5,347.5C 324.293,349.435 320.627,352.102 317.5,355.5C 312.333,357.916 307.333,360.582 302.5,363.5C 298.873,364.321 295.54,365.654 292.5,367.5C 287.95,368.463 283.617,369.797 279.5,371.5C 277.708,371.366 276.042,371.699 274.5,372.5C 269.647,372.813 264.98,373.479 260.5,374.5C 247.77,374.818 235.103,374.151 222.5,372.5C 218.022,370.877 213.355,369.544 208.5,368.5C 207.791,367.596 206.791,367.263 205.5,367.5C 199.565,364.533 193.565,361.533 187.5,358.5C 181.663,355.082 175.996,351.416 170.5,347.5C 163.5,341.167 156.833,334.5 150.5,327.5C 149.567,324.63 147.9,322.296 145.5,320.5C 144.331,317.489 142.664,314.822 140.5,312.5C 138.438,307.375 136.104,302.375 133.5,297.5C 133.065,294.843 132.065,292.509 130.5,290.5C 130.634,288.708 130.301,287.042 129.5,285.5C 128.79,281.975 127.79,278.642 126.5,275.5C 124.799,262.567 124.132,249.567 124.5,236.5C 125.709,232.382 126.376,228.049 126.5,223.5C 127.945,220.063 128.945,216.397 129.5,212.5C 131.601,209.203 132.935,205.537 133.5,201.5C 134.338,201.158 134.672,200.492 134.5,199.5C 136.341,197.151 137.674,194.485 138.5,191.5C 139.11,190.609 139.443,189.609 139.5,188.5C 143.068,183.709 146.402,178.709 149.5,173.5C 152.209,170.792 154.542,167.792 156.5,164.5C 157.833,164.5 158.5,163.833 158.5,162.5C 159.833,161.833 160.833,160.833 161.5,159.5C 163.404,159.262 164.738,158.262 165.5,156.5C 169.39,153.729 173.057,150.729 176.5,147.5C 178.027,147.573 179.027,146.906 179.5,145.5C 182.54,144.32 185.206,142.653 187.5,140.5C 190.992,139.59 193.992,137.924 196.5,135.5C 198.553,135.598 200.22,134.931 201.5,133.5C 207.675,131.664 213.675,129.664 219.5,127.5C 219.833,127.5 220.167,127.5 220.5,127.5C 226.004,126.731 231.338,125.731 236.5,124.5 Z"/></g>
<g><path style="opacity:0.996" fill="#5879a9" d="M 308.5,90.5 C 316.332,92.8818 323.665,96.2151 330.5,100.5C 325.415,100.791 321.082,99.1242 317.5,95.5C 313.423,95.4359 310.423,93.7692 308.5,90.5 Z"/></g>
<g><path style="opacity:1" fill="#42659f" d="M 185.5,92.5 C 183.022,94.8025 180.355,96.9692 177.5,99C 174.522,99.696 171.522,100.196 168.5,100.5C 173.735,97.0506 179.402,94.384 185.5,92.5 Z"/></g>
<g><path style="opacity:0.102" fill="#adcae0" d="M 146.5,100.5 C 144.986,102.364 143.653,104.364 142.5,106.5C 142.687,104.436 143.187,102.436 144,100.5C 144.977,99.2264 145.811,99.2264 146.5,100.5 Z"/></g>
<g><path style="opacity:0.71" fill="#9ab7d9" d="M 147.5,101.5 C 149.63,103.127 151.63,104.96 153.5,107C 154.448,107.483 155.448,107.649 156.5,107.5C 155.998,109.085 154.998,109.585 153.5,109C 150.882,106.894 148.882,104.394 147.5,101.5 Z"/></g>
<g><path style="opacity:0.541" fill="#83a0c8" d="M 168.5,100.5 C 167.514,102.408 165.848,103.408 163.5,103.5C 164.659,101.75 166.326,100.75 168.5,100.5 Z"/></g>
<g><path style="opacity:1" fill="#6886b3" d="M 331.5,101.5 C 336.165,102.828 340.165,105.161 343.5,108.5C 339.733,107.269 336.067,105.769 332.5,104C 331.748,103.329 331.414,102.496 331.5,101.5 Z"/></g>
<g><path style="opacity:1" fill="#265398" d="M 146.5,100.5 C 147.167,100.5 147.5,100.833 147.5,101.5C 148.882,104.394 150.882,106.894 153.5,109C 154.998,109.585 155.998,109.085 156.5,107.5C 158.336,105.412 160.669,104.079 163.5,103.5C 162.878,106.776 160.878,108.109 157.5,107.5C 157.915,109.948 156.915,111.281 154.5,111.5C 152.31,108.824 149.477,107.158 146,106.5C 144.229,107.347 143.063,108.68 142.5,110.5C 142.5,109.167 142.5,107.833 142.5,106.5C 143.653,104.364 144.986,102.364 146.5,100.5 Z"/></g>
<g><path style="opacity:1" fill="#3c629f" d="M 343.5,108.5 C 350.701,112.364 357.034,117.364 362.5,123.5C 359.492,122.58 356.659,121.246 354,119.5C 353.667,119.833 353.333,120.167 353,120.5C 351.991,118.975 351.491,117.308 351.5,115.5C 350.448,115.649 349.448,115.483 348.5,115C 346.296,113.235 344.629,111.069 343.5,108.5 Z"/></g>
<g><path style="opacity:0.996" fill="#476da4" d="M 142.5,106.5 C 142.5,107.833 142.5,109.167 142.5,110.5C 140.833,116.33 138.667,121.997 136,127.5C 135.505,129.473 135.338,131.473 135.5,133.5C 135.158,134.338 134.492,134.672 133.5,134.5C 134.15,132.565 134.483,130.565 134.5,128.5C 136.599,120.862 139.266,113.529 142.5,106.5 Z"/></g>
<g><path style="opacity:1" fill="#0650ab" d="M 271.5,82.5 C 271.833,82.5 272.167,82.5 272.5,82.5C 272.611,83.1174 272.944,83.6174 273.5,84C 279.787,85.1072 286.12,85.6072 292.5,85.5C 294.944,87.0723 297.61,88.5723 300.5,90C 302.81,90.4966 305.143,90.6633 307.5,90.5C 307.833,90.5 308.167,90.5 308.5,90.5C 310.423,93.7692 313.423,95.4359 317.5,95.5C 321.082,99.1242 325.415,100.791 330.5,100.5C 331.167,100.5 331.5,100.833 331.5,101.5C 331.414,102.496 331.748,103.329 332.5,104C 336.067,105.769 339.733,107.269 343.5,108.5C 344.629,111.069 346.296,113.235 348.5,115C 349.448,115.483 350.448,115.649 351.5,115.5C 351.491,117.308 351.991,118.975 353,120.5C 353.333,120.167 353.667,119.833 354,119.5C 356.659,121.246 359.492,122.58 362.5,123.5C 363.5,124.167 364.5,124.833 365.5,125.5C 365.709,126.922 366.209,128.255 367,129.5C 368.651,131.21 370.484,132.544 372.5,133.5C 374.5,134.833 376.167,136.5 377.5,138.5C 378.298,142.725 380.132,146.392 383,149.5C 383.186,151.9 383.686,154.234 384.5,156.5C 385.86,154.019 386.86,154.352 387.5,157.5C 386.991,160.462 385.991,163.129 384.5,165.5C 359.421,127.279 324.421,103.445 279.5,94C 237.272,86.0679 198.272,93.5679 162.5,116.5C 163.165,119.768 164.998,122.768 168,125.5C 168.483,126.448 168.649,127.448 168.5,128.5C 157.51,130.26 146.51,131.927 135.5,133.5C 135.338,131.473 135.505,129.473 136,127.5C 138.667,121.997 140.833,116.33 142.5,110.5C 143.063,108.68 144.229,107.347 146,106.5C 149.477,107.158 152.31,108.824 154.5,111.5C 156.915,111.281 157.915,109.948 157.5,107.5C 160.878,108.109 162.878,106.776 163.5,103.5C 165.848,103.408 167.514,102.408 168.5,100.5C 171.522,100.196 174.522,99.696 177.5,99C 180.355,96.9692 183.022,94.8025 185.5,92.5C 186.496,92.4142 187.329,92.7476 188,93.5C 189.11,91.9632 190.61,91.2965 192.5,91.5C 199.649,89.3442 206.982,87.5108 214.5,86C 218.535,85.3035 222.535,85.4701 226.5,86.5C 228.029,86.4712 229.196,85.8045 230,84.5C 232.147,85.4757 234.314,85.309 236.5,84C 248.16,83.2723 259.826,82.7723 271.5,82.5 Z"/></g>
<g><path style="opacity:0.918" fill="#5277a3" d="M 365.5,125.5 C 368.543,127.543 370.876,130.21 372.5,133.5C 370.484,132.544 368.651,131.21 367,129.5C 366.209,128.255 365.709,126.922 365.5,125.5 Z"/></g>
<g><path style="opacity:0.557" fill="#8ab5e3" d="M 134.5,128.5 C 134.483,130.565 134.15,132.565 133.5,134.5C 134.509,135.939 134.176,137.272 132.5,138.5C 128.575,140.109 125.241,142.442 122.5,145.5C 124.725,141.765 127.558,138.432 131,135.5C 132.213,133.075 133.379,130.741 134.5,128.5 Z"/></g>
<g><path style="opacity:0.271" fill="#add1ec" d="M 122.5,145.5 C 121.5,148.5 119.5,150.5 116.5,151.5C 114.435,151.517 112.435,151.85 110.5,152.5C 110.611,151.883 110.944,151.383 111.5,151C 113.5,150.667 115.5,150.333 117.5,150C 119.037,148.293 120.704,146.793 122.5,145.5 Z"/></g>
<g><path style="opacity:0.302" fill="#9db8d9" d="M 110.5,152.5 C 110.573,154.027 109.906,155.027 108.5,155.5C 108.427,153.973 109.094,152.973 110.5,152.5 Z"/></g>
<g><path style="opacity:0.298" fill="#99b9e0" d="M 108.5,155.5 C 108.573,157.027 107.906,158.027 106.5,158.5C 106.427,156.973 107.094,155.973 108.5,155.5 Z"/></g>
<g><path style="opacity:1" fill="#1c53a2" d="M 377.5,138.5 C 382.471,143.109 386.471,148.443 389.5,154.5C 389.343,155.873 389.51,157.207 390,158.5C 390.876,160.635 392.376,161.969 394.5,162.5C 398.26,167.684 401.26,173.35 403.5,179.5C 399.362,179.027 397.362,176.693 397.5,172.5C 395.167,172.5 392.833,172.5 390.5,172.5C 390.5,171.167 390.5,169.833 390.5,168.5C 391.5,168.5 392.5,168.5 393.5,168.5C 394.077,165.45 392.91,163.45 390,162.5C 388.807,164.497 387.307,166.164 385.5,167.5C 384.662,167.158 384.328,166.492 384.5,165.5C 385.991,163.129 386.991,160.462 387.5,157.5C 386.86,154.352 385.86,154.019 384.5,156.5C 383.686,154.234 383.186,151.9 383,149.5C 380.132,146.392 378.298,142.725 377.5,138.5 Z"/></g>
<g><path style="opacity:0.973" fill="#3c639b" d="M 389.5,154.5 C 391.664,156.822 393.331,159.489 394.5,162.5C 392.376,161.969 390.876,160.635 390,158.5C 389.51,157.207 389.343,155.873 389.5,154.5 Z"/></g>
<g><path style="opacity:0.957" fill="#6781b4" d="M 103.5,163.5 C 103.784,166.857 102.451,169.191 99.5,170.5C 100.079,167.669 101.412,165.336 103.5,163.5 Z"/></g>
<g><path style="opacity:1" fill="#395e9f" d="M 99.5,170.5 C 101.33,177.635 98.9963,182.635 92.5,185.5C 94.0444,180.081 96.3777,175.081 99.5,170.5 Z"/></g>
<g><path style="opacity:1" fill="#2d589d" d="M 403.5,179.5 C 408.734,189.534 412.401,200.201 414.5,211.5C 411.768,208.837 410.268,205.504 410,201.5C 408.594,200.332 407.428,200.665 406.5,202.5C 406.167,201.667 405.833,200.833 405.5,200C 405.979,197.688 406.312,195.355 406.5,193C 405.123,188.652 404.123,184.152 403.5,179.5 Z"/></g>
<g><path style="opacity:0.941" fill="#496b9f" d="M 92.5,185.5 C 92.4142,186.496 92.7476,187.329 93.5,188C 91.6511,191.161 90.4844,194.661 90,198.5C 89.3333,199.167 88.6667,199.833 88,200.5C 87.3999,205.674 86.2332,210.674 84.5,215.5C 84.1667,215.5 83.8333,215.5 83.5,215.5C 84.9149,204.93 87.9149,194.93 92.5,185.5 Z"/></g>
<g><path style="opacity:1" fill="#4469a5" d="M 83.5,215.5 C 83.8333,215.5 84.1667,215.5 84.5,215.5C 82.7355,231.437 82.2355,247.437 83,263.5C 84.7307,272.076 85.7307,280.743 86,289.5C 88.0036,295.35 89.5036,301.35 90.5,307.5C 88.1939,303.915 86.8606,299.915 86.5,295.5C 86.5979,293.447 85.9313,291.78 84.5,290.5C 83.1971,286.618 82.5304,282.618 82.5,278.5C 82.8016,275.941 82.4682,273.607 81.5,271.5C 78.5904,252.622 79.257,233.956 83.5,215.5 Z"/></g>
<g><path style="opacity:1" fill="#4368a5" d="M 414.5,211.5 C 420.696,235.659 421.029,259.992 415.5,284.5C 412.946,287.59 411.946,291.256 412.5,295.5C 412.167,295.5 411.833,295.5 411.5,295.5C 410.839,289.827 411.672,284.494 414,279.5C 417.021,256.849 417.188,234.182 414.5,211.5 Z"/></g>
<g><path style="opacity:0.078" fill="#a5c8e9" d="M 81.5,271.5 C 82.4682,273.607 82.8016,275.941 82.5,278.5C 81.7839,276.444 81.1172,274.277 80.5,272C 80.7284,271.601 81.0618,271.435 81.5,271.5 Z"/></g>
<g><path style="opacity:0.839" fill="#7395c0" d="M 415.5,284.5 C 415.074,288.427 414.074,292.093 412.5,295.5C 411.946,291.256 412.946,287.59 415.5,284.5 Z"/></g>
<g><path style="opacity:0.157" fill="#b4d8eb" d="M 84.5,290.5 C 85.9313,291.78 86.5979,293.447 86.5,295.5C 85.0687,294.22 84.4021,292.553 84.5,290.5 Z"/></g>
<g><path style="opacity:0.918" fill="#597cae" d="M 411.5,295.5 C 411.833,295.5 412.167,295.5 412.5,295.5C 412.31,298.855 411.31,301.855 409.5,304.5C 409.065,301.162 409.732,298.162 411.5,295.5 Z"/></g>
<g><path style="opacity:0.847" fill="#6784b2" d="M 90.5,308.5 C 92.5207,310.032 94.0207,312.032 95,314.5C 97.214,320.242 99.3807,325.909 101.5,331.5C 96.5166,324.531 92.8499,316.864 90.5,308.5 Z"/></g>
<g><path style="opacity:0.941" fill="#4c6ea2" d="M 408.5,308.5 C 407.07,312.354 405.403,316.021 403.5,319.5C 403.342,314.922 405.009,311.255 408.5,308.5 Z"/></g>
<g><path style="opacity:0.816" fill="#4c6ea3" d="M 402.5,322.5 C 401.231,325.757 399.564,328.757 397.5,331.5C 398.372,327.773 399.539,324.107 401,320.5C 401.278,321.416 401.778,322.082 402.5,322.5 Z"/></g>
<g><path style="opacity:0.945" fill="#5172a7" d="M 101.5,331.5 C 102.5,331.5 103.5,331.5 104.5,331.5C 105.5,334.833 106.5,338.167 107.5,341.5C 104.498,338.839 102.498,335.505 101.5,331.5 Z"/></g>
<g><path style="opacity:0.773" fill="#4f76a8" d="M 397.5,331.5 C 396,335.173 394,338.506 391.5,341.5C 392.271,337.35 394.271,334.016 397.5,331.5 Z"/></g>
<g><path style="opacity:0.863" fill="#4b70a8" d="M 391.5,341.5 C 389.938,345.392 387.605,348.725 384.5,351.5C 384.343,350.127 384.51,348.793 385,347.5C 386.659,346.183 387.826,344.517 388.5,342.5C 389.325,341.614 390.325,341.281 391.5,341.5 Z"/></g>
<g><path style="opacity:1" fill="#355fa1" d="M 108.5,343.5 C 109.675,343.281 110.675,343.614 111.5,344.5C 113.252,347.471 115.252,350.138 117.5,352.5C 119.334,351.298 121.167,350.298 123,349.5C 123.667,350.167 123.667,350.833 123,351.5C 118.749,353.573 118.582,356.073 122.5,359C 121.944,359.383 121.611,359.883 121.5,360.5C 116.451,355.412 112.117,349.745 108.5,343.5 Z"/></g>
<g><path style="opacity:1" fill="#0750ab" d="M 239.5,112.5 C 289.03,111.352 329.196,130.019 360,168.5C 392.703,217.33 395.036,267.664 367,319.5C 332.764,370.693 284.93,392.193 223.5,384C 164.032,368.925 127.532,331.425 114,271.5C 107.57,221.111 123.07,179.111 160.5,145.5C 183.312,126.117 209.645,115.117 239.5,112.5 Z M 236.5,124.5 C 250.955,123.984 265.288,124.984 279.5,127.5C 283.687,128.969 288.02,130.302 292.5,131.5C 297.828,133.832 303.162,136.165 308.5,138.5C 308.973,139.906 309.973,140.573 311.5,140.5C 312.514,141.674 313.847,142.34 315.5,142.5C 315.973,143.906 316.973,144.573 318.5,144.5C 318.973,145.906 319.973,146.573 321.5,146.5C 321.973,147.906 322.973,148.573 324.5,148.5C 325.585,150.587 327.251,151.92 329.5,152.5C 329.833,153.5 330.5,154.167 331.5,154.5C 333.833,156.5 336.167,158.5 338.5,160.5C 338.856,162.19 339.856,163.19 341.5,163.5C 343.817,167.146 346.484,170.48 349.5,173.5C 353.669,179.166 357.335,185.166 360.5,191.5C 361.596,194.032 362.929,196.365 364.5,198.5C 364.263,199.791 364.596,200.791 365.5,201.5C 367.18,206.257 368.847,210.923 370.5,215.5C 370.294,218.495 370.96,221.162 372.5,223.5C 374.043,235.779 374.71,248.112 374.5,260.5C 373.398,266.779 372.398,273.113 371.5,279.5C 369.926,282.907 368.926,286.573 368.5,290.5C 367.463,291.93 366.796,293.597 366.5,295.5C 364.597,298.979 362.93,302.646 361.5,306.5C 359.25,309.999 357.25,313.665 355.5,317.5C 353.738,318.262 352.738,319.596 352.5,321.5C 351.094,321.973 350.427,322.973 350.5,324.5C 348.413,325.585 347.08,327.251 346.5,329.5C 345.833,329.5 345.5,329.833 345.5,330.5C 342.097,332.9 339.43,335.9 337.5,339.5C 334.911,340.419 332.911,342.086 331.5,344.5C 330.167,345.167 329.167,346.167 328.5,347.5C 324.293,349.435 320.627,352.102 317.5,355.5C 312.333,357.916 307.333,360.582 302.5,363.5C 298.873,364.321 295.54,365.654 292.5,367.5C 287.95,368.463 283.617,369.797 279.5,371.5C 277.708,371.366 276.042,371.699 274.5,372.5C 269.647,372.813 264.98,373.479 260.5,374.5C 247.77,374.818 235.103,374.151 222.5,372.5C 218.022,370.877 213.355,369.544 208.5,368.5C 207.791,367.596 206.791,367.263 205.5,367.5C 199.565,364.533 193.565,361.533 187.5,358.5C 181.663,355.082 175.996,351.416 170.5,347.5C 163.5,341.167 156.833,334.5 150.5,327.5C 149.567,324.63 147.9,322.296 145.5,320.5C 144.331,317.489 142.664,314.822 140.5,312.5C 138.438,307.375 136.104,302.375 133.5,297.5C 133.065,294.843 132.065,292.509 130.5,290.5C 130.634,288.708 130.301,287.042 129.5,285.5C 128.79,281.975 127.79,278.642 126.5,275.5C 124.799,262.567 124.132,249.567 124.5,236.5C 125.709,232.382 126.376,228.049 126.5,223.5C 127.945,220.063 128.945,216.397 129.5,212.5C 131.601,209.203 132.935,205.537 133.5,201.5C 134.338,201.158 134.672,200.492 134.5,199.5C 136.341,197.151 137.674,194.485 138.5,191.5C 139.11,190.609 139.443,189.609 139.5,188.5C 143.068,183.709 146.402,178.709 149.5,173.5C 152.209,170.792 154.542,167.792 156.5,164.5C 157.833,164.5 158.5,163.833 158.5,162.5C 159.833,161.833 160.833,160.833 161.5,159.5C 163.404,159.262 164.738,158.262 165.5,156.5C 169.39,153.729 173.057,150.729 176.5,147.5C 178.027,147.573 179.027,146.906 179.5,145.5C 182.54,144.32 185.206,142.653 187.5,140.5C 190.992,139.59 193.992,137.924 196.5,135.5C 198.553,135.598 200.22,134.931 201.5,133.5C 207.675,131.664 213.675,129.664 219.5,127.5C 219.833,127.5 220.167,127.5 220.5,127.5C 226.004,126.731 231.338,125.731 236.5,124.5 Z"/></g>
<g><path style="opacity:1" fill="#345ea0" d="M 326.5,148.5 C 334.299,150.927 339.966,155.927 343.5,163.5C 345.078,164.072 346.578,164.406 348,164.5C 348.696,167.478 349.196,170.478 349.5,173.5C 346.484,170.48 343.817,167.146 341.5,163.5C 341.144,161.81 340.144,160.81 338.5,160.5C 339.66,158.797 338.993,158.131 336.5,158.5C 336.616,155.09 334.95,153.756 331.5,154.5C 330.5,154.167 329.833,153.5 329.5,152.5C 328.5,151.167 327.5,149.833 326.5,148.5 Z"/></g>
<g><path style="opacity:0.337" fill="#94adcc" d="M 338.5,160.5 C 340.144,160.81 341.144,161.81 341.5,163.5C 339.856,163.19 338.856,162.19 338.5,160.5 Z"/></g>
<g><path style="opacity:0.027" fill="#c8dfef" d="M 164.5,156.5 C 164.833,156.5 165.167,156.5 165.5,156.5C 164.738,158.262 163.404,159.262 161.5,159.5C 162.167,158.167 163.167,157.167 164.5,156.5 Z"/></g>
<g><path style="opacity:1" fill="#4c74a2" d="M 331.5,154.5 C 334.95,153.756 336.616,155.09 336.5,158.5C 338.993,158.131 339.66,158.797 338.5,160.5C 336.167,158.5 333.833,156.5 331.5,154.5 Z"/></g>
<g><path style="opacity:0.882" fill="#617eae" d="M 176.5,147.5 C 173.057,150.729 169.39,153.729 165.5,156.5C 165.167,156.5 164.833,156.5 164.5,156.5C 166.697,151.326 170.697,148.326 176.5,147.5 Z"/></g>
<g><path style="opacity:0.553" fill="#94b2d2" d="M 324.5,148.5 C 325.167,148.5 325.833,148.5 326.5,148.5C 327.5,149.833 328.5,151.167 329.5,152.5C 327.251,151.92 325.585,150.587 324.5,148.5 Z"/></g>
<g><path style="opacity:0.353" fill="#9dbae0" d="M 321.5,146.5 C 323.027,146.427 324.027,147.094 324.5,148.5C 322.973,148.573 321.973,147.906 321.5,146.5 Z"/></g>
<g><path style="opacity:0.008" fill="#e3f3fd" d="M 179.5,145.5 C 179.027,146.906 178.027,147.573 176.5,147.5C 176.973,146.094 177.973,145.427 179.5,145.5 Z"/></g>
<g><path style="opacity:0.204" fill="#b8cee5" d="M 315.5,142.5 C 317.027,142.427 318.027,143.094 318.5,144.5C 316.973,144.573 315.973,143.906 315.5,142.5 Z"/></g>
<g><path style="opacity:0.996" fill="#5575a7" d="M 311.5,140.5 C 316.383,140.11 319.717,142.11 321.5,146.5C 319.973,146.573 318.973,145.906 318.5,144.5C 318.027,143.094 317.027,142.427 315.5,142.5C 313.847,142.34 312.514,141.674 311.5,140.5 Z"/></g>
<g><path style="opacity:0.871" fill="#8fa7cc" d="M 187.5,140.5 C 185.206,142.653 182.54,144.32 179.5,145.5C 179.263,144.209 179.596,143.209 180.5,142.5C 182.921,142.122 185.254,141.455 187.5,140.5 Z"/></g>
<g><path style="opacity:0.094" fill="#c7ddf2" d="M 308.5,138.5 C 309.167,138.5 309.833,138.5 310.5,138.5C 310.833,139.167 311.167,139.833 311.5,140.5C 309.973,140.573 308.973,139.906 308.5,138.5 Z"/></g>
<g><path style="opacity:0.882" fill="#355f99" d="M 203.5,130.5 C 202.833,131.5 202.167,132.5 201.5,133.5C 200.22,134.931 198.553,135.598 196.5,135.5C 193.019,136.317 190.019,137.983 187.5,140.5C 185.254,141.455 182.921,142.122 180.5,142.5C 183.24,140.947 185.907,139.114 188.5,137C 193.851,135.459 198.851,133.293 203.5,130.5 Z"/></g>
<g><path style="opacity:0.09" fill="#b4cee6" d="M 196.5,135.5 C 193.992,137.924 190.992,139.59 187.5,140.5C 190.019,137.983 193.019,136.317 196.5,135.5 Z"/></g>
<g><path style="opacity:1" fill="#2f599e" d="M 289.5,128.5 C 293.943,130.052 298.609,130.885 303.5,131C 302.549,131.718 302.383,132.551 303,133.5C 305.88,134.838 308.38,136.505 310.5,138.5C 309.833,138.5 309.167,138.5 308.5,138.5C 303.162,136.165 297.828,133.832 292.5,131.5C 291.694,130.272 290.694,129.272 289.5,128.5 Z"/></g>
<g><path style="opacity:0.745" fill="#7b9cbc" d="M 218.5,127.5 C 218.833,127.5 219.167,127.5 219.5,127.5C 213.675,129.664 207.675,131.664 201.5,133.5C 202.167,132.5 202.833,131.5 203.5,130.5C 208.464,129.289 213.464,128.289 218.5,127.5 Z"/></g>
<g><path style="opacity:0.886" fill="#6181b0" d="M 279.5,127.5 C 282.833,127.833 286.167,128.167 289.5,128.5C 290.694,129.272 291.694,130.272 292.5,131.5C 288.02,130.302 283.687,128.969 279.5,127.5 Z"/></g>
<g><path style="opacity:0.012" fill="#dce6f5" d="M 254.5,142.5 C 254.5,144.5 253.5,145.5 251.5,145.5C 252.167,144.167 253.167,143.167 254.5,142.5 Z"/></g>
<g><path style="opacity:0.259" fill="#b5d1ee" d="M 244.5,132.5 C 243.738,137.393 244.738,141.726 247.5,145.5C 245.983,145.489 244.816,144.823 244,143.5C 243.19,139.642 243.357,135.976 244.5,132.5 Z"/></g>
<g><path style="opacity:0.278" fill="#a9bde2" d="M 251.5,129.5 C 252.735,129.721 253.735,130.388 254.5,131.5C 255.808,135.315 255.808,138.981 254.5,142.5C 255.016,137.733 254.016,133.399 251.5,129.5 Z"/></g>
<g><path style="opacity:1" fill="#2b57a2" d="M 251.5,129.5 C 254.016,133.399 255.016,137.733 254.5,142.5C 253.167,143.167 252.167,144.167 251.5,145.5C 250.167,146.833 248.833,146.833 247.5,145.5C 244.738,141.726 243.738,137.393 244.5,132.5C 245.979,128.944 248.312,127.944 251.5,129.5 Z"/></g>
<g><path style="opacity:0.878" fill="#5474a5" d="M 279.5,127.5 C 265.288,124.984 250.955,123.984 236.5,124.5C 230.806,124.24 225.473,125.24 220.5,127.5C 220.167,127.5 219.833,127.5 219.5,127.5C 219.167,127.5 218.833,127.5 218.5,127.5C 218.414,126.504 218.748,125.671 219.5,125C 238.478,121.706 257.478,121.706 276.5,125C 277.942,125.377 278.942,126.21 279.5,127.5 Z"/></g>
<g><path style="opacity:0.22" fill="#bfd7ef" d="M 236.5,124.5 C 231.338,125.731 226.004,126.731 220.5,127.5C 225.473,125.24 230.806,124.24 236.5,124.5 Z"/></g>
<g><path style="opacity:0.431" fill="#afbfd6" d="M 123.5,363.5 C 125.5,363.5 126.5,364.5 126.5,366.5C 125.167,365.833 124.167,364.833 123.5,363.5 Z"/></g>
<g><path style="opacity:0.894" fill="#597ba7" d="M 126.5,366.5 C 130.053,367.223 132.553,369.223 134,372.5C 135.812,373.977 137.645,375.31 139.5,376.5C 138.833,376.5 138.5,376.833 138.5,377.5C 133.848,374.514 129.848,370.847 126.5,366.5 Z"/></g>
<g><path style="opacity:0.961" fill="#2e5796" d="M 384.5,351.5 C 377.903,360.765 370.237,369.099 361.5,376.5C 361.591,372.408 363.591,369.741 367.5,368.5C 370.161,365.806 371.328,362.806 371,359.5C 372.153,361.497 373.653,361.83 375.5,360.5C 377.392,358.412 378.892,356.079 380,353.5C 381.11,351.963 382.61,351.297 384.5,351.5 Z"/></g>
<g><path style="opacity:1" fill="#0650ab" d="M 116.5,151.5 C 119.25,153.008 120.084,155.341 119,158.5C 95.7224,193.296 87.0558,231.63 93,273.5C 100.246,316.035 120.746,350.535 154.5,377C 203.397,410.881 255.73,417.048 311.5,395.5C 357.539,374.629 387.705,339.963 402,291.5C 413.509,247.646 408.009,206.313 385.5,167.5C 387.307,166.164 388.807,164.497 390,162.5C 392.91,163.45 394.077,165.45 393.5,168.5C 392.5,168.5 391.5,168.5 390.5,168.5C 390.5,169.833 390.5,171.167 390.5,172.5C 392.833,172.5 395.167,172.5 397.5,172.5C 397.362,176.693 399.362,179.027 403.5,179.5C 404.123,184.152 405.123,188.652 406.5,193C 406.312,195.355 405.979,197.688 405.5,200C 405.833,200.833 406.167,201.667 406.5,202.5C 407.428,200.665 408.594,200.332 410,201.5C 410.268,205.504 411.768,208.837 414.5,211.5C 417.188,234.182 417.021,256.849 414,279.5C 411.672,284.494 410.839,289.827 411.5,295.5C 409.732,298.162 409.065,301.162 409.5,304.5C 409.567,305.959 409.234,307.292 408.5,308.5C 405.009,311.255 403.342,314.922 403.5,319.5C 403.737,320.791 403.404,321.791 402.5,322.5C 401.778,322.082 401.278,321.416 401,320.5C 399.539,324.107 398.372,327.773 397.5,331.5C 394.271,334.016 392.271,337.35 391.5,341.5C 390.325,341.281 389.325,341.614 388.5,342.5C 387.826,344.517 386.659,346.183 385,347.5C 384.51,348.793 384.343,350.127 384.5,351.5C 382.61,351.297 381.11,351.963 380,353.5C 378.892,356.079 377.392,358.412 375.5,360.5C 373.653,361.83 372.153,361.497 371,359.5C 371.328,362.806 370.161,365.806 367.5,368.5C 363.591,369.741 361.591,372.408 361.5,376.5C 359.621,375.659 357.621,375.325 355.5,375.5C 355.5,376.833 355.5,378.167 355.5,379.5C 354.167,379.5 352.833,379.5 351.5,379.5C 351.5,380.833 351.5,382.167 351.5,383.5C 350.167,383.5 348.833,383.5 347.5,383.5C 346.047,386.664 344.047,389.331 341.5,391.5C 338.753,391.187 336.086,391.52 333.5,392.5C 333.833,393.167 334.167,393.833 334.5,394.5C 331.268,395.949 327.935,397.116 324.5,398C 322.234,399.426 320.568,401.26 319.5,403.5C 315.404,402.715 312.07,403.882 309.5,407C 300.29,409.267 290.957,410.933 281.5,412C 279.709,412.415 278.376,413.415 277.5,415C 257.836,416.514 238.169,416.68 218.5,415.5C 217.209,415.737 216.209,415.404 215.5,414.5C 210.727,412.978 205.727,411.978 200.5,411.5C 200.167,411.5 199.833,411.5 199.5,411.5C 199.047,410.542 198.381,409.708 197.5,409C 193.991,408.469 190.658,407.469 187.5,406C 182.69,401.712 177.023,399.546 170.5,399.5C 167.399,395.617 163.399,393.283 158.5,392.5C 158.027,391.094 157.027,390.427 155.5,390.5C 155.027,389.094 154.027,388.427 152.5,388.5C 150.045,382.375 145.711,378.375 139.5,376.5C 137.645,375.31 135.812,373.977 134,372.5C 132.553,369.223 130.053,367.223 126.5,366.5C 126.5,364.5 125.5,363.5 123.5,363.5C 122.833,362.5 122.167,361.5 121.5,360.5C 121.611,359.883 121.944,359.383 122.5,359C 118.582,356.073 118.749,353.573 123,351.5C 123.667,350.833 123.667,350.167 123,349.5C 121.167,350.298 119.334,351.298 117.5,352.5C 115.252,350.138 113.252,347.471 111.5,344.5C 110.675,343.614 109.675,343.281 108.5,343.5C 107.662,343.158 107.328,342.492 107.5,341.5C 106.5,338.167 105.5,334.833 104.5,331.5C 103.5,331.5 102.5,331.5 101.5,331.5C 99.3807,325.909 97.214,320.242 95,314.5C 94.0207,312.032 92.5207,310.032 90.5,308.5C 90.5,308.167 90.5,307.833 90.5,307.5C 89.5036,301.35 88.0036,295.35 86,289.5C 85.7307,280.743 84.7307,272.076 83,263.5C 82.2355,247.437 82.7355,231.437 84.5,215.5C 86.2332,210.674 87.3999,205.674 88,200.5C 88.6667,199.833 89.3333,199.167 90,198.5C 90.4844,194.661 91.6511,191.161 93.5,188C 92.7476,187.329 92.4142,186.496 92.5,185.5C 98.9963,182.635 101.33,177.635 99.5,170.5C 102.451,169.191 103.784,166.857 103.5,163.5C 103.75,161.326 104.75,159.659 106.5,158.5C 107.906,158.027 108.573,157.027 108.5,155.5C 109.906,155.027 110.573,154.027 110.5,152.5C 112.435,151.85 114.435,151.517 116.5,151.5 Z"/></g>
<g><path style="opacity:0.863" fill="#5f80b5" d="M 208.5,368.5 C 213.355,369.544 218.022,370.877 222.5,372.5C 220.833,372.5 219.167,372.5 217.5,372.5C 214.256,371.537 211.256,370.204 208.5,368.5 Z"/></g>
<g><path style="opacity:0.69" fill="#779ebf" d="M 292.5,367.5 C 292.167,368.167 291.833,368.833 291.5,369.5C 287.538,370.376 283.538,371.042 279.5,371.5C 283.617,369.797 287.95,368.463 292.5,367.5 Z"/></g>
<g><path style="opacity:0.933" fill="#5b7cac" d="M 302.5,363.5 C 300.109,366.917 296.775,368.25 292.5,367.5C 295.54,365.654 298.873,364.321 302.5,363.5 Z"/></g>
<g><path style="opacity:0.878" fill="#6488b5" d="M 187.5,358.5 C 193.565,361.533 199.565,364.533 205.5,367.5C 201.501,366.5 197.501,365.5 193.5,364.5C 191.424,362.485 189.424,360.485 187.5,358.5 Z"/></g>
<g><path style="opacity:1" fill="#3e65a2" d="M 317.5,355.5 C 317.703,357.39 317.037,358.89 315.5,360C 311.16,361.282 306.827,362.449 302.5,363.5C 307.333,360.582 312.333,357.916 317.5,355.5 Z"/></g>
<g><path style="opacity:1" fill="#1c54a3" d="M 170.5,347.5 C 175.996,351.416 181.663,355.082 187.5,358.5C 189.424,360.485 191.424,362.485 193.5,364.5C 191.453,364.511 189.453,364.844 187.5,365.5C 184.652,362.907 181.319,361.074 177.5,360C 173.735,356.636 171.401,352.469 170.5,347.5 Z"/></g>
<g><path style="opacity:1" fill="#5272ab" d="M 251.5,354.5 C 251.833,354.5 252.167,354.5 252.5,354.5C 254.988,356.056 255.988,358.389 255.5,361.5C 255.84,367.388 253.173,370.222 247.5,370C 246,369.167 244.833,368 244,366.5C 243.192,362.973 243.359,359.64 244.5,356.5C 244.121,360.576 245.121,364.243 247.5,367.5C 248.689,368.429 250.022,368.762 251.5,368.5C 252.135,365.507 252.301,362.507 252,359.5C 250.989,360.337 249.822,360.67 248.5,360.5C 248.5,359.5 248.5,358.5 248.5,357.5C 249.5,357.5 250.5,357.5 251.5,357.5C 251.5,356.5 251.5,355.5 251.5,354.5 Z"/></g>
<g><path style="opacity:1" fill="#0c4ca2" d="M 251.5,354.5 C 251.5,355.5 251.5,356.5 251.5,357.5C 250.5,357.5 249.5,357.5 248.5,357.5C 248.5,358.5 248.5,359.5 248.5,360.5C 249.822,360.67 250.989,360.337 252,359.5C 252.301,362.507 252.135,365.507 251.5,368.5C 250.022,368.762 248.689,368.429 247.5,367.5C 245.121,364.243 244.121,360.576 244.5,356.5C 246.479,354.832 248.812,354.166 251.5,354.5 Z"/></g>
<g><path style="opacity:0.278" fill="#abc1de" d="M 252.5,354.5 C 252.167,354.5 251.833,354.5 251.5,354.5C 248.812,354.166 246.479,354.832 244.5,356.5C 244.414,355.504 244.748,354.671 245.5,354C 248.143,351.952 250.476,352.119 252.5,354.5 Z"/></g>
<g><path style="opacity:0.969" fill="#4e70a0" d="M 328.5,347.5 C 326.503,352.501 322.836,355.168 317.5,355.5C 320.627,352.102 324.293,349.435 328.5,347.5 Z"/></g>
<g><path style="opacity:1" fill="#2b5aa1" d="M 150.5,327.5 C 156.833,334.5 163.5,341.167 170.5,347.5C 167.287,346.441 164.287,346.441 161.5,347.5C 163.005,346.158 163.672,344.492 163.5,342.5C 160.455,342.296 157.621,342.296 155,342.5C 154.268,337.234 152.768,332.234 150.5,327.5 Z"/></g>
<g><path style="opacity:0.506" fill="#9dbad9" d="M 337.5,339.5 C 336.089,341.914 334.089,343.581 331.5,344.5C 332.911,342.086 334.911,340.419 337.5,339.5 Z"/></g>
<g><path style="opacity:1" fill="#1d4f8e" d="M 355.5,319.5 C 355.657,320.873 355.49,322.207 355,323.5C 348.726,330.776 342.059,337.776 335,344.5C 334.667,345.833 334.333,347.167 334,348.5C 332.301,347.594 330.467,347.261 328.5,347.5C 329.167,346.167 330.167,345.167 331.5,344.5C 334.089,343.581 336.089,341.914 337.5,339.5C 340.903,337.1 343.57,334.1 345.5,330.5C 345.5,329.833 345.833,329.5 346.5,329.5C 348.587,328.415 349.92,326.749 350.5,324.5C 351.906,324.027 352.573,323.027 352.5,321.5C 353.5,320.833 354.5,320.167 355.5,319.5 Z"/></g>
<g><path style="opacity:0.322" fill="#a0c2dc" d="M 345.5,330.5 C 343.57,334.1 340.903,337.1 337.5,339.5C 339.43,335.9 342.097,332.9 345.5,330.5 Z"/></g>
<g><path style="opacity:0.851" fill="#43689d" d="M 164.5,328.5 C 164.5,330.167 164.5,331.833 164.5,333.5C 167.807,332.949 171.14,332.616 174.5,332.5C 171.972,336.465 168.638,337.299 164.5,335C 163.748,334.329 163.414,333.496 163.5,332.5C 163.232,330.901 163.566,329.568 164.5,328.5 Z"/></g>
<g><path style="opacity:1" fill="#5777aa" d="M 323.5,331.5 C 324.5,331.5 325.5,331.5 326.5,331.5C 327.95,333.61 329.95,334.943 332.5,335.5C 328.607,336.731 325.607,335.398 323.5,331.5 Z"/></g>
<g><path style="opacity:0.082" fill="#b2c9df" d="M 164.5,326.5 C 164.5,327.167 164.5,327.833 164.5,328.5C 163.566,329.568 163.232,330.901 163.5,332.5C 162.861,331.903 162.528,331.07 162.5,330C 162.387,328.301 163.053,327.134 164.5,326.5 Z"/></g>
<g><path style="opacity:0.376" fill="#a0bbd7" d="M 350.5,324.5 C 349.92,326.749 348.587,328.415 346.5,329.5C 347.08,327.251 348.413,325.585 350.5,324.5 Z"/></g>
<g><path style="opacity:1" fill="#2f59a5" d="M 175.5,322.5 C 179.642,326.156 179.309,329.49 174.5,332.5C 171.14,332.616 167.807,332.949 164.5,333.5C 164.5,331.833 164.5,330.167 164.5,328.5C 164.5,327.833 164.5,327.167 164.5,326.5C 164.833,325.5 165.5,324.833 166.5,324.5C 169.215,322.877 172.215,322.21 175.5,322.5 Z"/></g>
<g><path style="opacity:1" fill="#084da6" d="M 332.5,335.5 C 329.95,334.943 327.95,333.61 326.5,331.5C 326.297,329.362 325.297,327.695 323.5,326.5C 323.709,325.914 324.043,325.414 324.5,325C 327.61,326.111 330.943,326.944 334.5,327.5C 333.833,330.167 333.167,332.833 332.5,335.5 Z"/></g>
<g><path style="opacity:0.71" fill="#89a5c5" d="M 322.5,323.5 C 322.401,326.237 322.735,328.904 323.5,331.5C 320.206,329.044 319.873,326.377 322.5,323.5 Z"/></g>
<g><path style="opacity:1" fill="#335b9d" d="M 331.5,323.5 C 335.443,325.721 336.943,329.054 336,333.5C 335.184,334.823 334.017,335.489 332.5,335.5C 333.167,332.833 333.833,330.167 334.5,327.5C 330.943,326.944 327.61,326.111 324.5,325C 324.043,325.414 323.709,325.914 323.5,326.5C 325.297,327.695 326.297,329.362 326.5,331.5C 325.5,331.5 324.5,331.5 323.5,331.5C 322.735,328.904 322.401,326.237 322.5,323.5C 325.5,322.167 328.5,322.167 331.5,323.5 Z"/></g>
<g><path style="opacity:0.298" fill="#9fbad8" d="M 352.5,321.5 C 352.573,323.027 351.906,324.027 350.5,324.5C 350.427,322.973 351.094,321.973 352.5,321.5 Z"/></g>
<g><path style="opacity:1" fill="#4f72a8" d="M 145.5,320.5 C 147.9,322.296 149.567,324.63 150.5,327.5C 146.88,326.548 145.213,324.215 145.5,320.5 Z"/></g>
<g><path style="opacity:0.737" fill="#7e9bbf" d="M 331.5,323.5 C 328.5,322.167 325.5,322.167 322.5,323.5C 325.5,319.5 328.5,319.5 331.5,323.5 Z"/></g>
<g><path style="opacity:0.635" fill="#8da7cb" d="M 175.5,322.5 C 172.215,322.21 169.215,322.877 166.5,324.5C 168.935,320.453 171.935,319.786 175.5,322.5 Z"/></g>
<g><path style="opacity:0.424" fill="#92adcc" d="M 355.5,317.5 C 355.5,318.167 355.5,318.833 355.5,319.5C 354.5,320.167 353.5,320.833 352.5,321.5C 352.738,319.596 353.738,318.262 355.5,317.5 Z"/></g>
<g><path style="opacity:0.898" fill="#5a7cad" d="M 140.5,312.5 C 142.664,314.822 144.331,317.489 145.5,320.5C 141.83,319.172 140.163,316.505 140.5,312.5 Z"/></g>
<g><path style="opacity:1" fill="#2a59a3" d="M 361.5,306.5 C 362.167,306.5 362.833,306.5 363.5,306.5C 363.473,309.23 364.14,311.73 365.5,314C 364.13,318.228 362.463,318.395 360.5,314.5C 359.06,315.952 357.394,316.952 355.5,317.5C 357.25,313.665 359.25,309.999 361.5,306.5 Z"/></g>
<g><path style="opacity:1" fill="#6a86b4" d="M 233.5,303.5 C 230.136,309.196 225.469,313.53 219.5,316.5C 218.261,316.058 217.261,315.391 216.5,314.5C 219.308,314.307 221.975,313.64 224.5,312.5C 224.34,310.801 224.506,309.134 225,307.5C 226.049,308.517 227.216,308.684 228.5,308C 228.793,304.906 230.459,303.406 233.5,303.5 Z"/></g>
<g><path style="opacity:1" fill="#6484b2" d="M 200.5,299.5 C 203.347,300.829 206.013,302.496 208.5,304.5C 210.31,306.623 211.643,308.957 212.5,311.5C 208.5,307.5 204.5,303.5 200.5,299.5 Z"/></g>
<g><path style="opacity:0.992" fill="#5d7daf" d="M 366.5,295.5 C 366.267,299.436 365.267,303.103 363.5,306.5C 362.833,306.5 362.167,306.5 361.5,306.5C 362.93,302.646 364.597,298.979 366.5,295.5 Z"/></g>
<g><path style="opacity:0.973" fill="#4b6da0" d="M 246.5,290.5 C 242.831,295.51 238.498,299.843 233.5,303.5C 233.183,299.828 234.849,298.162 238.5,298.5C 238.162,294.849 239.828,293.183 243.5,293.5C 243.5,292.5 243.5,291.5 243.5,290.5C 244.5,290.5 245.5,290.5 246.5,290.5 Z"/></g>
<g><path style="opacity:0.875" fill="#6c86b2" d="M 196.5,295.5 C 197.833,295.833 199.167,296.167 200.5,296.5C 200.5,297.5 200.5,298.5 200.5,299.5C 198.833,298.5 197.5,297.167 196.5,295.5 Z"/></g>
<g><path style="opacity:0.624" fill="#7a9bc2" d="M 130.5,290.5 C 132.065,292.509 133.065,294.843 133.5,297.5C 131.166,295.824 130.166,293.491 130.5,290.5 Z"/></g>
<g><path style="opacity:1" fill="#31599d" d="M 180.5,279.5 C 181.873,279.343 183.207,279.51 184.5,280C 186.842,282.376 189.175,284.709 191.5,287C 192.793,287.49 194.127,287.657 195.5,287.5C 195.238,288.978 195.571,290.311 196.5,291.5C 198.704,292.472 200.037,294.139 200.5,296.5C 199.167,296.167 197.833,295.833 196.5,295.5C 196.512,292.858 195.179,291.525 192.5,291.5C 188.509,287.543 184.509,283.543 180.5,279.5 Z"/></g>
<g><path style="opacity:0.851" fill="#6d8fb8" d="M 192.5,291.5 C 195.179,291.525 196.512,292.858 196.5,295.5C 194.833,294.5 193.5,293.167 192.5,291.5 Z"/></g>
<g><path style="opacity:0.651" fill="#618bac" d="M 371.5,279.5 C 371.88,283.658 370.88,287.325 368.5,290.5C 368.926,286.573 369.926,282.907 371.5,279.5 Z"/></g>
<g><path style="opacity:0.976" fill="#5675a5" d="M 254.5,282.5 C 253.918,283.931 253.085,285.264 252,286.5C 251.329,287.252 250.496,287.586 249.5,287.5C 248.833,283.5 250.5,281.833 254.5,282.5 Z"/></g>
<g><path style="opacity:0.894" fill="#6784b5" d="M 126.5,275.5 C 127.79,278.642 128.79,281.975 129.5,285.5C 128.542,285.047 127.708,284.381 127,283.5C 126.503,280.854 126.336,278.187 126.5,275.5 Z"/></g>
<g><path style="opacity:0.443" fill="#9cbad7" d="M 177.5,276.5 C 179.5,276.5 180.5,277.5 180.5,279.5C 179.167,278.833 178.167,277.833 177.5,276.5 Z"/></g>
<g><path style="opacity:1" fill="#4266a2" d="M 276.5,260.5 C 269.649,268.27 262.316,275.603 254.5,282.5C 255.167,280.167 255.833,277.833 256.5,275.5C 257.978,275.762 259.311,275.429 260.5,274.5C 259.538,272.117 260.538,271.117 263.5,271.5C 264.386,267.963 266.719,266.296 270.5,266.5C 270.5,262.5 272.5,260.5 276.5,260.5 Z"/></g>
<g><path style="opacity:1" fill="#5878a5" d="M 170.5,269.5 C 171.873,269.343 173.207,269.51 174.5,270C 175.223,272.018 176.223,273.852 177.5,275.5C 175.18,273.581 172.847,271.581 170.5,269.5 Z"/></g>
<g><path style="opacity:1" fill="#4e709e" d="M 173.5,254.5 C 173.008,256.841 171.841,258.841 170,260.5C 169.398,263.221 169.565,265.887 170.5,268.5C 166.043,265.874 165.543,262.541 169,258.5C 170.371,256.959 171.871,255.625 173.5,254.5 Z"/></g>
<g><path style="opacity:1" fill="#2355a0" d="M 371.5,279.5 C 372.398,273.113 373.398,266.779 374.5,260.5C 375.656,253.011 375.822,245.345 375,237.5C 374.778,232.588 373.945,227.921 372.5,223.5C 372.421,222.07 372.754,220.736 373.5,219.5C 372.306,218.201 371.306,216.868 370.5,215.5C 370.428,211.374 369.761,207.374 368.5,203.5C 368.443,202.391 368.11,201.391 367.5,200.5C 368.822,200.67 369.989,200.337 371,199.5C 371.5,200.667 372.333,201.5 373.5,202C 372.248,206.245 373.415,209.745 377,212.5C 377.167,213.667 377.333,214.833 377.5,216C 377.241,218.454 376.241,220.454 374.5,222C 375.317,223.49 376.15,224.99 377,226.5C 377.333,230.5 377.667,234.5 378,238.5C 378.692,239.025 379.192,239.692 379.5,240.5C 378.219,243.011 377.552,245.678 377.5,248.5C 378.35,253.466 378.35,258.466 377.5,263.5C 377.833,265.833 378.167,268.167 378.5,270.5C 379.324,267.215 379.824,263.882 380,260.5C 382.036,265.179 381.869,269.846 379.5,274.5C 379.167,274.833 378.833,275.167 378.5,275.5C 377.719,274.271 377.219,272.938 377,271.5C 375.356,274.385 373.523,277.051 371.5,279.5 Z"/></g>
<g><path style="opacity:0.863" fill="#5371a7" d="M 367.5,244.5 C 367.427,246.027 368.094,247.027 369.5,247.5C 370.819,253.521 368.152,256.188 361.5,255.5C 359.631,255.493 357.964,255.16 356.5,254.5C 353.833,251.167 353.833,247.833 356.5,244.5C 360.065,243.213 363.732,243.213 367.5,244.5 Z"/></g>
<g><path style="opacity:0.051" fill="#c4dff2" d="M 372.5,223.5 C 373.945,227.921 374.778,232.588 375,237.5C 375.822,245.345 375.656,253.011 374.5,260.5C 374.71,248.112 374.043,235.779 372.5,223.5 Z"/></g>
<g><path style="opacity:0.863" fill="#6788b3" d="M 178.5,249.5 C 178.512,252.142 177.179,253.475 174.5,253.5C 175.5,251.833 176.833,250.5 178.5,249.5 Z"/></g>
<g><path style="opacity:1" fill="#064ea6" d="M 358.5,244.5 C 361.315,245.126 363.815,246.46 366,248.5C 366.711,250.367 366.211,251.867 364.5,253C 355.721,254.419 353.721,251.586 358.5,244.5 Z"/></g>
<g><path style="opacity:1" fill="#2957a4" d="M 143.5,246.5 C 144.756,248.726 144.756,251.059 143.5,253.5C 143.389,254.117 143.056,254.617 142.5,255C 139.167,255.667 135.833,255.667 132.5,255C 131.619,254.292 130.953,253.458 130.5,252.5C 130.081,249.675 131.081,247.509 133.5,246C 136.777,246.201 140.111,246.368 143.5,246.5 Z"/></g>
<g><path style="opacity:0.682" fill="#a8badb" d="M 356.5,244.5 C 353.833,247.833 353.833,251.167 356.5,254.5C 352.429,252.565 351.596,249.565 354,245.5C 354.671,244.748 355.504,244.414 356.5,244.5 Z"/></g>
<g><path style="opacity:0.616" fill="#a2c2dd" d="M 142.5,244.5 C 144.99,245.108 146.324,246.775 146.5,249.5C 146.439,251.653 145.439,252.986 143.5,253.5C 144.756,251.059 144.756,248.726 143.5,246.5C 143.167,245.833 142.833,245.167 142.5,244.5 Z"/></g>
<g><path style="opacity:0.275" fill="#a3c0df" d="M 367.5,244.5 C 368.906,244.973 369.573,245.973 369.5,247.5C 368.094,247.027 367.427,246.027 367.5,244.5 Z"/></g>
<g><path style="opacity:0.82" fill="#3c629c" d="M 298.5,235.5 C 298.5,236.833 298.5,238.167 298.5,239.5C 291.375,246.783 284.042,253.783 276.5,260.5C 277.31,258.202 278.144,255.868 279,253.5C 283.919,251.415 287.752,248.081 290.5,243.5C 291.325,242.614 292.325,242.281 293.5,242.5C 293.5,241.167 293.5,239.833 293.5,238.5C 294.5,238.5 295.5,238.5 296.5,238.5C 296.285,236.821 296.952,235.821 298.5,235.5 Z"/></g>
<g><path style="opacity:0.957" fill="#3e6298" d="M 258.5,240.5 C 257.861,242.76 256.694,244.76 255,246.5C 253.512,248.16 251.679,249.16 249.5,249.5C 252.167,246.167 255.167,243.167 258.5,240.5 Z"/></g>
<g><path style="opacity:0.749" fill="#7f9cb9" d="M 188.5,248.5 C 187.883,248.611 187.383,248.944 187,249.5C 186.326,248.422 185.326,247.755 184,247.5C 182.061,247.954 180.228,248.621 178.5,249.5C 181.609,244.871 184.942,244.538 188.5,248.5 Z"/></g>
<g><path style="opacity:1" fill="#4e70a6" d="M 142.5,244.5 C 142.833,245.167 143.167,245.833 143.5,246.5C 140.111,246.368 136.777,246.201 133.5,246C 131.081,247.509 130.081,249.675 130.5,252.5C 127.457,249.302 128.123,246.469 132.5,244C 136.027,243.192 139.36,243.359 142.5,244.5 Z"/></g>
<g><path style="opacity:0.98" fill="#5475a4" d="M 124.5,229.5 C 124.5,231.833 124.5,234.167 124.5,236.5C 124.132,249.567 124.799,262.567 126.5,275.5C 124.102,272.345 122.936,268.679 123,264.5C 122.333,253.833 122.333,243.167 123,232.5C 123.232,231.263 123.732,230.263 124.5,229.5 Z"/></g>
<g><path style="opacity:1" fill="#355c9b" d="M 276.5,222.5 C 276.66,224.199 276.494,225.866 276,227.5C 274.013,228.218 272.179,229.218 270.5,230.5C 267.741,235.386 263.741,238.719 258.5,240.5C 264.167,234.167 270.167,228.167 276.5,222.5 Z"/></g>
<g><path style="opacity:0.118" fill="#bed6ee" d="M 126.5,223.5 C 126.376,228.049 125.709,232.382 124.5,236.5C 124.5,234.167 124.5,231.833 124.5,229.5C 125.048,227.374 125.715,225.374 126.5,223.5 Z"/></g>
<g><path style="opacity:1" fill="#597aad" d="M 331.5,205.5 C 321.11,217.554 310.11,228.888 298.5,239.5C 298.5,238.167 298.5,236.833 298.5,235.5C 301.319,233.197 304.319,231.03 307.5,229C 306.949,227.602 306.616,226.268 306.5,225C 308.473,224.505 310.473,224.338 312.5,224.5C 312.351,219.733 314.684,217.4 319.5,217.5C 319.433,216.041 319.766,214.708 320.5,213.5C 321.5,213.5 322.5,213.5 323.5,213.5C 323.5,212.5 323.5,211.5 323.5,210.5C 324.5,210.5 325.5,210.5 326.5,210.5C 326.5,209.5 326.5,208.5 326.5,207.5C 328.514,207.608 330.18,206.942 331.5,205.5 Z"/></g>
<g><path style="opacity:0.941" fill="#85a0c8" d="M 370.5,215.5 C 371.306,216.868 372.306,218.201 373.5,219.5C 372.754,220.736 372.421,222.07 372.5,223.5C 370.96,221.162 370.294,218.495 370.5,215.5 Z"/></g>
<g><path style="opacity:0.918" fill="#7593be" d="M 129.5,212.5 C 128.945,216.397 127.945,220.063 126.5,223.5C 126.335,220.482 126.502,217.482 127,214.5C 127.417,213.244 128.25,212.577 129.5,212.5 Z"/></g>
<g><path style="opacity:0.769" fill="#96b5cf" d="M 132.5,201.5 C 132.833,201.5 133.167,201.5 133.5,201.5C 132.935,205.537 131.601,209.203 129.5,212.5C 129.69,208.598 130.69,204.931 132.5,201.5 Z"/></g>
<g><path style="opacity:0.949" fill="#3c6199" d="M 303.5,195.5 C 303.723,198.114 302.556,199.781 300,200.5C 299.333,201.833 298.667,203.167 298,204.5C 293.525,207.145 289.691,210.479 286.5,214.5C 285.675,215.386 284.675,215.719 283.5,215.5C 289.833,208.5 296.5,201.833 303.5,195.5 Z"/></g>
<g><path style="opacity:0.835" fill="#7595c0" d="M 365.5,201.5 C 366.5,202.167 367.5,202.833 368.5,203.5C 369.761,207.374 370.428,211.374 370.5,215.5C 368.847,210.923 367.18,206.257 365.5,201.5 Z"/></g>
<g><path style="opacity:1" fill="#2b57a1" d="M 325.5,196.5 C 326.167,196.5 326.833,196.5 327.5,196.5C 331.398,198.607 332.731,201.607 331.5,205.5C 330.18,206.942 328.514,207.608 326.5,207.5C 326.5,208.5 326.5,209.5 326.5,210.5C 325.5,210.5 324.5,210.5 323.5,210.5C 323.5,211.5 323.5,212.5 323.5,213.5C 322.5,213.5 321.5,213.5 320.5,213.5C 321.048,211.606 322.048,209.94 323.5,208.5C 324.632,204.574 325.299,200.574 325.5,196.5 Z"/></g>
<g><path style="opacity:0.137" fill="#cae4f5" d="M 138.5,191.5 C 137.674,194.485 136.341,197.151 134.5,199.5C 134.794,196.246 136.127,193.579 138.5,191.5 Z"/></g>
<g><path style="opacity:0.635" fill="#759dc2" d="M 360.5,191.5 C 361.496,191.414 362.329,191.748 363,192.5C 363.813,194.436 364.313,196.436 364.5,198.5C 362.929,196.365 361.596,194.032 360.5,191.5 Z"/></g>
<g><path style="opacity:1" fill="#3a609f" d="M 327.5,196.5 C 326.833,196.5 326.167,196.5 325.5,196.5C 321.646,196.509 319.313,194.675 318.5,191C 317.128,190.598 315.795,190.098 314.5,189.5C 310.651,191.256 306.984,193.256 303.5,195.5C 304.5,193.833 305.833,192.5 307.5,191.5C 308.833,190.833 309.833,189.833 310.5,188.5C 311.918,186.292 313.918,185.458 316.5,186C 320.668,189.002 324.335,192.502 327.5,196.5 Z"/></g>
<g><path style="opacity:1" fill="#064faa" d="M 325.5,196.5 C 325.299,200.574 324.632,204.574 323.5,208.5C 322.048,209.94 321.048,211.606 320.5,213.5C 319.766,214.708 319.433,216.041 319.5,217.5C 314.684,217.4 312.351,219.733 312.5,224.5C 310.473,224.338 308.473,224.505 306.5,225C 306.616,226.268 306.949,227.602 307.5,229C 304.319,231.03 301.319,233.197 298.5,235.5C 296.952,235.821 296.285,236.821 296.5,238.5C 295.5,238.5 294.5,238.5 293.5,238.5C 293.5,239.833 293.5,241.167 293.5,242.5C 292.325,242.281 291.325,242.614 290.5,243.5C 287.752,248.081 283.919,251.415 279,253.5C 278.144,255.868 277.31,258.202 276.5,260.5C 272.5,260.5 270.5,262.5 270.5,266.5C 266.719,266.296 264.386,267.963 263.5,271.5C 260.538,271.117 259.538,272.117 260.5,274.5C 259.311,275.429 257.978,275.762 256.5,275.5C 255.833,277.833 255.167,280.167 254.5,282.5C 250.5,281.833 248.833,283.5 249.5,287.5C 248.833,288.833 247.833,289.833 246.5,290.5C 245.5,290.5 244.5,290.5 243.5,290.5C 243.5,291.5 243.5,292.5 243.5,293.5C 239.828,293.183 238.162,294.849 238.5,298.5C 234.849,298.162 233.183,299.828 233.5,303.5C 230.459,303.406 228.793,304.906 228.5,308C 227.216,308.684 226.049,308.517 225,307.5C 224.506,309.134 224.34,310.801 224.5,312.5C 221.975,313.64 219.308,314.307 216.5,314.5C 214.596,314.262 213.262,313.262 212.5,311.5C 211.643,308.957 210.31,306.623 208.5,304.5C 206.013,302.496 203.347,300.829 200.5,299.5C 200.5,298.5 200.5,297.5 200.5,296.5C 200.037,294.139 198.704,292.472 196.5,291.5C 195.571,290.311 195.238,288.978 195.5,287.5C 194.127,287.657 192.793,287.49 191.5,287C 189.175,284.709 186.842,282.376 184.5,280C 183.207,279.51 181.873,279.343 180.5,279.5C 180.5,277.5 179.5,276.5 177.5,276.5C 177.5,276.167 177.5,275.833 177.5,275.5C 176.223,273.852 175.223,272.018 174.5,270C 173.207,269.51 171.873,269.343 170.5,269.5C 170.5,269.167 170.5,268.833 170.5,268.5C 169.565,265.887 169.398,263.221 170,260.5C 171.841,258.841 173.008,256.841 173.5,254.5C 174.167,254.5 174.5,254.167 174.5,253.5C 177.179,253.475 178.512,252.142 178.5,249.5C 180.228,248.621 182.061,247.954 184,247.5C 185.326,247.755 186.326,248.422 187,249.5C 187.383,248.944 187.883,248.611 188.5,248.5C 190.525,253.193 192.525,257.86 194.5,262.5C 197.489,263.083 200.155,264.416 202.5,266.5C 203.386,267.325 203.719,268.325 203.5,269.5C 207.903,268.893 209.236,270.56 207.5,274.5C 207.833,275.5 208.5,276.167 209.5,276.5C 210.842,274.995 212.508,274.328 214.5,274.5C 216.167,275.5 217.5,276.833 218.5,278.5C 219.601,279.598 220.934,279.765 222.5,279C 225.343,275.825 228.51,272.991 232,270.5C 233.009,268.975 233.509,267.308 233.5,265.5C 234.552,265.649 235.552,265.483 236.5,265C 238.908,262.312 240.908,259.479 242.5,256.5C 244.595,255.588 246.595,254.421 248.5,253C 249.337,251.989 249.67,250.822 249.5,249.5C 251.679,249.16 253.512,248.16 255,246.5C 256.694,244.76 257.861,242.76 258.5,240.5C 263.741,238.719 267.741,235.386 270.5,230.5C 272.179,229.218 274.013,228.218 276,227.5C 276.494,225.866 276.66,224.199 276.5,222.5C 278.5,219.833 280.833,217.5 283.5,215.5C 284.675,215.719 285.675,215.386 286.5,214.5C 289.691,210.479 293.525,207.145 298,204.5C 298.667,203.167 299.333,201.833 300,200.5C 302.556,199.781 303.723,198.114 303.5,195.5C 306.984,193.256 310.651,191.256 314.5,189.5C 315.795,190.098 317.128,190.598 318.5,191C 319.313,194.675 321.646,196.509 325.5,196.5 Z"/></g>
<g><path style="opacity:1" fill="#52a0f8" d="M 313.5,200.5 C 316.524,200.364 318.024,201.698 318,204.5C 285.374,237.293 252.54,269.96 219.5,302.5C 206.167,289.833 193.167,276.833 180.5,263.5C 181.427,261.054 183.094,260.221 185.5,261C 195.833,271.333 206.167,281.667 216.5,292C 218.167,292.667 219.833,292.667 221.5,292C 252.727,261.939 283.394,231.439 313.5,200.5 Z"/></g>
<g><path style="opacity:0.922" fill="#3d649a" d="M 233.5,265.5 C 233.509,267.308 233.009,268.975 232,270.5C 228.51,272.991 225.343,275.825 222.5,279C 220.934,279.765 219.601,279.598 218.5,278.5C 223.776,274.563 228.776,270.229 233.5,265.5 Z"/></g>
<g><path style="opacity:0.957" fill="#40639a" d="M 242.5,256.5 C 240.908,259.479 238.908,262.312 236.5,265C 235.552,265.483 234.552,265.649 233.5,265.5C 236.167,262.167 239.167,259.167 242.5,256.5 Z"/></g>
<g><path style="opacity:1" fill="#2c59a0" d="M 188.5,248.5 C 197.5,256.833 206.167,265.5 214.5,274.5C 212.508,274.328 210.842,274.995 209.5,276.5C 208.5,276.167 207.833,275.5 207.5,274.5C 209.236,270.56 207.903,268.893 203.5,269.5C 203.719,268.325 203.386,267.325 202.5,266.5C 200.155,264.416 197.489,263.083 194.5,262.5C 192.525,257.86 190.525,253.193 188.5,248.5 Z"/></g>
<g><path style="opacity:0.761" fill="#46679c" d="M 249.5,249.5 C 249.67,250.822 249.337,251.989 248.5,253C 246.595,254.421 244.595,255.588 242.5,256.5C 244.5,253.833 246.833,251.5 249.5,249.5 Z"/></g>
<g><path style="opacity:0.302" fill="#bacceb" d="M 310.5,188.5 C 309.833,189.833 308.833,190.833 307.5,191.5C 307.5,189.5 308.5,188.5 310.5,188.5 Z"/></g>
<g><path style="opacity:1" fill="#315c9c" d="M 349.5,173.5 C 351.435,174.15 353.435,174.483 355.5,174.5C 357.165,178.032 358.665,181.699 360,185.5C 361,186.167 362,186.833 363,187.5C 364.5,191.847 366,196.18 367.5,200.5C 368.11,201.391 368.443,202.391 368.5,203.5C 367.5,202.833 366.5,202.167 365.5,201.5C 364.596,200.791 364.263,199.791 364.5,198.5C 364.313,196.436 363.813,194.436 363,192.5C 362.329,191.748 361.496,191.414 360.5,191.5C 357.335,185.166 353.669,179.166 349.5,173.5 Z"/></g>
<g><path style="opacity:0.984" fill="#345e98" d="M 139.5,185.5 C 139.5,186.5 139.5,187.5 139.5,188.5C 139.443,189.609 139.11,190.609 138.5,191.5C 136.127,193.579 134.794,196.246 134.5,199.5C 134.672,200.492 134.338,201.158 133.5,201.5C 133.167,201.5 132.833,201.5 132.5,201.5C 133.321,195.322 135.655,189.989 139.5,185.5 Z"/></g>
<g><path style="opacity:0.871" fill="#708fba" d="M 149.5,173.5 C 146.402,178.709 143.068,183.709 139.5,188.5C 139.5,187.5 139.5,186.5 139.5,185.5C 140.114,183.717 141.28,182.384 143,181.5C 143.596,178.46 144.763,175.794 146.5,173.5C 147.5,173.5 148.5,173.5 149.5,173.5 Z"/></g>
<g><path style="opacity:0.043" fill="#daeffc" d="M 177.5,169.5 C 178.622,171.288 178.789,173.288 178,175.5C 177.184,176.823 176.017,177.489 174.5,177.5C 176.984,175.455 177.984,172.788 177.5,169.5 Z"/></g>
<g><path style="opacity:0.769" fill="#96afcf" d="M 324.5,166.5 C 322.712,169.228 322.212,172.228 323,175.5C 325.381,176.435 327.881,176.768 330.5,176.5C 327.784,179.134 324.951,179.134 322,176.5C 319.481,172.246 320.315,168.913 324.5,166.5 Z"/></g>
<g><path style="opacity:0.945" fill="#5f7fab" d="M 333.5,163.5 C 337.674,167.483 337.34,171.15 332.5,174.5C 332.396,171.91 333.063,169.577 334.5,167.5C 334.154,166.151 333.821,164.817 333.5,163.5 Z"/></g>
<g><path style="opacity:1" fill="#4165a0" d="M 171.5,165.5 C 169.5,165.5 167.5,165.5 165.5,165.5C 164.754,172.377 167.754,175.377 174.5,174.5C 174.632,171.43 174.299,168.43 173.5,165.5C 175.167,166.5 176.5,167.833 177.5,169.5C 177.984,172.788 176.984,175.455 174.5,177.5C 170.423,179.173 167.423,177.84 165.5,173.5C 164.701,170.57 164.368,167.57 164.5,164.5C 167.059,164.198 169.393,164.532 171.5,165.5 Z"/></g>
<g><path style="opacity:1" fill="#064ea7" d="M 171.5,165.5 C 172.167,165.5 172.833,165.5 173.5,165.5C 174.299,168.43 174.632,171.43 174.5,174.5C 167.754,175.377 164.754,172.377 165.5,165.5C 167.5,165.5 169.5,165.5 171.5,165.5 Z"/></g>
<g><path style="opacity:1" fill="#1e51a0" d="M 333.5,163.5 C 333.821,164.817 334.154,166.151 334.5,167.5C 333.063,169.577 332.396,171.91 332.5,174.5C 332.167,175.5 331.5,176.167 330.5,176.5C 327.881,176.768 325.381,176.435 323,175.5C 322.212,172.228 322.712,169.228 324.5,166.5C 324.833,165.5 325.5,164.833 326.5,164.5C 328.764,163.781 331.097,163.448 333.5,163.5 Z"/></g>
<g><path style="opacity:0.894" fill="#6c8ab1" d="M 173.5,165.5 C 172.833,165.5 172.167,165.5 171.5,165.5C 169.393,164.532 167.059,164.198 164.5,164.5C 164.368,167.57 164.701,170.57 165.5,173.5C 161.883,171.014 161.216,168.014 163.5,164.5C 167.278,161.579 170.611,161.912 173.5,165.5 Z"/></g>
<g><path style="opacity:0.875" fill="#7892bd" d="M 156.5,164.5 C 154.542,167.792 152.209,170.792 149.5,173.5C 150.833,170.503 152.166,167.503 153.5,164.5C 154.5,164.5 155.5,164.5 156.5,164.5 Z"/></g>
<g><path style="opacity:0.004" fill="#c6d6eb" d="M 158.5,162.5 C 158.5,163.833 157.833,164.5 156.5,164.5C 156.833,163.5 157.5,162.833 158.5,162.5 Z"/></g>
<g><path style="opacity:0.384" fill="#a3bdd5" d="M 333.5,163.5 C 331.097,163.448 328.764,163.781 326.5,164.5C 327.312,163.007 328.645,162.34 330.5,162.5C 331.726,162.52 332.726,162.853 333.5,163.5 Z"/></g>
<g><path style="opacity:0.892" fill="#476ba2" d="M 291.5,369.5 C 290.257,371.164 288.59,372.331 286.5,373C 281.204,372.928 276.204,373.928 271.5,376C 254.95,376.94 238.45,376.44 222,374.5C 220.014,374.431 218.514,373.765 217.5,372.5C 219.167,372.5 220.833,372.5 222.5,372.5C 235.103,374.151 247.77,374.818 260.5,374.5C 265.453,374.877 270.119,374.211 274.5,372.5C 276.042,371.699 277.708,371.366 279.5,371.5C 283.538,371.042 287.538,370.376 291.5,369.5 Z"/></g>
<g><path style="opacity:0.647" fill="#a2c1e3" d="M 274.5,372.5 C 270.119,374.211 265.453,374.877 260.5,374.5C 264.98,373.479 269.647,372.813 274.5,372.5 Z"/></g>
<g><path style="opacity:0.604" fill="#a2c2da" d="M 140.5,379.5 C 142.749,380.08 144.415,381.413 145.5,383.5C 143.251,382.92 141.585,381.587 140.5,379.5 Z"/></g>
<g><path style="opacity:1" fill="#4265a4" d="M 361.5,376.5 C 355.915,382.957 349.249,387.957 341.5,391.5C 344.047,389.331 346.047,386.664 347.5,383.5C 348.833,383.5 350.167,383.5 351.5,383.5C 351.5,382.167 351.5,380.833 351.5,379.5C 352.833,379.5 354.167,379.5 355.5,379.5C 355.5,378.167 355.5,376.833 355.5,375.5C 357.621,375.325 359.621,375.659 361.5,376.5 Z"/></g>
<g><path style="opacity:1" fill="#39609f" d="M 139.5,376.5 C 145.711,378.375 150.045,382.375 152.5,388.5C 149.883,387.214 147.55,385.547 145.5,383.5C 144.415,381.413 142.749,380.08 140.5,379.5C 139.5,379.167 138.833,378.5 138.5,377.5C 138.5,376.833 138.833,376.5 139.5,376.5 Z"/></g>
<g><path style="opacity:0.259" fill="#94b8de" d="M 152.5,388.5 C 154.027,388.427 155.027,389.094 155.5,390.5C 153.973,390.573 152.973,389.906 152.5,388.5 Z"/></g>
<g><path style="opacity:0.247" fill="#9abada" d="M 155.5,390.5 C 157.027,390.427 158.027,391.094 158.5,392.5C 156.973,392.573 155.973,391.906 155.5,390.5 Z"/></g>
<g><path style="opacity:1" fill="#5271aa" d="M 341.5,391.5 C 334.904,396.742 327.571,400.742 319.5,403.5C 320.568,401.26 322.234,399.426 324.5,398C 327.935,397.116 331.268,395.949 334.5,394.5C 334.167,393.833 333.833,393.167 333.5,392.5C 336.086,391.52 338.753,391.187 341.5,391.5 Z"/></g>
<g><path style="opacity:0.824" fill="#6989b5" d="M 158.5,392.5 C 163.399,393.283 167.399,395.617 170.5,399.5C 165.996,397.989 161.996,395.656 158.5,392.5 Z"/></g>
<g><path style="opacity:1" fill="#46689f" d="M 170.5,399.5 C 177.023,399.546 182.69,401.712 187.5,406C 190.658,407.469 193.991,408.469 197.5,409C 198.381,409.708 199.047,410.542 199.5,411.5C 189.238,408.643 179.571,404.643 170.5,399.5 Z"/></g>
<g><path style="opacity:0.843" fill="#6282ae" d="M 305.5,409.5 C 303.698,410.458 301.698,411.125 299.5,411.5C 299.389,410.883 299.056,410.383 298.5,410C 300.81,409.503 303.143,409.337 305.5,409.5 Z"/></g>
<g><path style="opacity:0.831" fill="#496b9e" d="M 200.5,411.5 C 205.727,411.978 210.727,412.978 215.5,414.5C 213.833,414.5 212.167,414.5 210.5,414.5C 206.838,414.277 203.505,413.277 200.5,411.5 Z"/></g>
<g><path style="opacity:0.702" fill="#7697be" d="M 295.5,412.5 C 292.146,414.258 288.479,415.258 284.5,415.5C 287.59,412.946 291.256,411.946 295.5,412.5 Z"/></g>
<g><path style="opacity:0.231" fill="#b4c9e6" d="M 210.5,414.5 C 212.167,414.5 213.833,414.5 215.5,414.5C 216.209,415.404 217.209,415.737 218.5,415.5C 218.5,415.833 218.5,416.167 218.5,416.5C 215.572,416.435 212.905,415.768 210.5,414.5 Z"/></g>
<g><path style="opacity:1" fill="#3e64a3" d="M 319.5,403.5 C 315.156,406.065 310.49,408.065 305.5,409.5C 303.143,409.337 300.81,409.503 298.5,410C 299.056,410.383 299.389,410.883 299.5,411.5C 298.432,412.434 297.099,412.768 295.5,412.5C 291.256,411.946 287.59,412.946 284.5,415.5C 262.594,420.374 240.594,420.707 218.5,416.5C 218.5,416.167 218.5,415.833 218.5,415.5C 238.169,416.68 257.836,416.514 277.5,415C 278.376,413.415 279.709,412.415 281.5,412C 290.957,410.933 300.29,409.267 309.5,407C 312.07,403.882 315.404,402.715 319.5,403.5 Z"/></g>
</svg>
